<svg width="88" height="241" viewBox="0 0 88 241" fill="none" xmlns="http://www.w3.org/2000/svg">
<path d="M48.401 210.335C50.5113 210.932 52.6952 208.707 54.5233 207.183C56.6888 205.373 59.0092 204.225 61.3358 203.273C63.1946 202.51 65.0534 201.723 66.9091 200.939L68.2986 200.353C68.8691 200.082 69.4411 199.81 70.0117 199.569C70.5822 199.327 71.4349 199.197 72.0054 198.977C76.7781 197.349 81.4266 195.141 85.7991 190.295C86.2706 189.718 86.7162 189.077 87.1318 188.379L87.1441 188.357C87.2707 188.141 87.3601 187.866 87.4019 187.564C87.4437 187.262 87.4363 186.945 87.3804 186.651C87.3245 186.356 87.2225 186.095 87.0862 185.898C86.9499 185.702 86.7849 185.578 86.6104 185.541L86.4371 185.508C80.5586 184.919 75.0175 190.346 69.2663 191.586C68.7035 191.814 68.1391 192.026 67.5793 192.21C67.0195 192.395 66.4413 192.558 65.8662 192.688C65.3662 192.851 64.8647 193 64.3647 193.135C61.8562 193.794 59.3209 194.078 56.7854 193.985C53.1829 193.879 49.5604 193.754 46.0023 192.65C44.4073 192.153 40.7204 190.208 42.8292 186.376C44.938 182.545 47.8166 179.704 50.2582 176.543C51.0578 175.51 51.8532 174.471 52.6446 173.426C53.3025 172.56 53.9789 171.836 54.215 170.354C54.3684 169.407 54.4098 167.961 54.0617 167.131C53.6568 166.176 53.0955 166.382 52.4974 166.512C50.1401 167.019 48.0651 169.073 45.9594 170.853C43.7325 172.753 41.3584 173.985 38.9935 175.244C37.0749 176.269 28.5923 179.376 28.5923 179.376C19.9793 181.848 6.22244 209.367 1.57547 215.564C1.28416 215.95 1.08649 216.517 1.02243 217.15C0.95837 217.784 1.0327 218.437 1.2304 218.978C3.62136 225.49 6.48623 231.215 8.89866 237.537L9.55813 239.081C9.70088 239.417 9.88284 239.696 10.0917 239.897C10.3005 240.098 10.5314 240.217 10.7686 240.247C11.0058 240.277 11.2438 240.216 11.4665 240.068C11.6893 239.921 11.8915 239.691 12.0595 239.393C12.3979 238.787 12.7302 238.174 13.0564 237.553C17.6911 229.524 21.743 215.624 28.965 216.424C29.9204 216.696 30.8575 216.991 31.7915 217.276C34.5981 218.126 37.3832 218.956 40.4168 220.03C43.8414 221.067 47.2845 221.344 50.3748 218.538C56.2272 214.555 61.8848 205.427 67.725 200.594" stroke="black" stroke-linecap="round" stroke-linejoin="round"/>
<path d="M76.2234 188.725C77.0976 186.97 80.1375 185.367 79.4789 182.245C79.2971 181.788 79.0652 181.409 78.7986 181.132C78.532 180.855 78.2368 180.685 77.9323 180.636C74.6329 180.979 66.533 189.737 66.0003 190.021C65.372 190.605 64.7254 191.148 64.0835 191.712C63.4415 192.276 62.3336 193.343 61.7144 193.983" stroke="black" stroke-linecap="round" stroke-linejoin="round"/>
<path d="M75.1978 181.246C75.7109 177.866 73.8777 176.48 72.32 177.312C70.936 178.051 69.6494 179.449 68.3003 180.717C67.8542 181.179 67.405 181.627 66.9452 182.023C66.4862 182.422 66.0111 182.751 65.5246 183.007C65.1485 183.244 64.7724 183.487 64.4024 183.735C64.0324 183.984 63.667 184.247 63.3122 184.527C61.0542 186.309 58.8601 188.163 56.6919 190.303C55.3033 191.67 53.7837 192.516 52.4286 193.983" stroke="black" stroke-linecap="round" stroke-linejoin="round"/>
<path d="M65.9989 182.552C66.023 181.862 65.651 181.296 65.2141 180.856C64.2937 179.934 61.8503 182.12 60.7672 183.464C59.0272 185.627 49.9887 193.194 49.5715 193.983" stroke="black" stroke-linecap="round" stroke-linejoin="round"/>
<path d="M53.6685 137.924C53.6685 137.924 46.9073 149.434 49.4149 157.879C50.7237 162.283 53.0003 165.121 55.1684 167.571C57.6148 170.327 60.5107 172.679 61.4372 178.523C62.3638 184.367 60.8042 189.426 59.1575 193.983" stroke="black" stroke-linecap="round" stroke-linejoin="round"/>
<path d="M42.9372 150.698C43.2509 149.382 42.8996 147.866 42.1525 147.314C41.4053 146.761 40.5452 147.38 40.2315 148.696C39.9177 150.013 40.269 151.528 41.0162 152.081C41.7633 152.634 42.6234 152.015 42.9372 150.698Z" stroke="black" stroke-linecap="round" stroke-linejoin="round"/>
<path d="M58.1428 154.829C58.1428 156.304 57.5024 157.5 56.7135 157.5C55.9246 157.5 55.2857 156.304 55.2857 154.829C55.2857 153.354 55.9246 152.161 56.7135 152.161C57.5024 152.161 58.1428 153.357 58.1428 154.829Z" stroke="black" stroke-linecap="round" stroke-linejoin="round"/>
<path d="M43.5305 163.572C44.1036 162.563 44.1036 160.926 43.5305 159.916C42.9575 158.906 42.0285 158.906 41.4555 159.916C40.8824 160.926 40.8824 162.563 41.4554 163.572C42.0285 164.582 42.9575 164.582 43.5305 163.572Z" stroke="black" stroke-linecap="round" stroke-linejoin="round"/>
<path d="M66 161.949C66 162.477 65.9162 162.993 65.7592 163.432C65.6022 163.871 65.3791 164.213 65.1181 164.415C64.8571 164.617 64.5698 164.67 64.2927 164.567C64.0156 164.464 63.761 164.21 63.5612 163.837C63.3615 163.463 63.2254 162.988 63.1703 162.47C63.1151 161.952 63.1434 161.415 63.2516 160.928C63.3597 160.44 63.5428 160.023 63.7777 159.73C64.0126 159.436 64.2889 159.28 64.5714 159.28C64.9503 159.28 65.3136 159.561 65.5815 160.062C65.8495 160.562 66 161.241 66 161.949V161.949Z" stroke="black" stroke-linecap="round" stroke-linejoin="round"/>
<path d="M54.3278 105C54.3278 105 53.778 111.136 51.7143 111.136C51.7143 111.136 54.3278 113.46 54.3278 117.458C54.3278 113.46 56.7143 111.136 56.7143 111.136C54.6506 111.136 54.3278 105 54.3278 105Z" stroke="black"/>
<path d="M39.3602 117.458C39.3602 117.458 38.6543 125.784 36 125.784C36 125.784 39.3602 128.934 39.3602 134.364C39.3602 128.939 42.4286 125.784 42.4286 125.784C39.7753 125.784 39.3602 117.458 39.3602 117.458Z" stroke="black"/>
<path d="M31.1297 145.042C31.1297 145.042 30.5022 152.931 28.1429 152.931C28.1429 152.931 31.1297 155.915 31.1297 161.059C31.1297 155.919 33.8572 152.931 33.8572 152.931C31.4996 152.931 31.1297 145.042 31.1297 145.042Z" stroke="black"/>
<path d="M61.844 128.136C61.844 128.136 61.2165 137.343 58.8572 137.343C58.8572 137.343 61.844 140.824 61.844 146.822C61.844 140.827 64.5715 137.343 64.5715 137.343C62.213 137.343 61.844 128.136 61.844 128.136Z" stroke="black"/>
<path d="M83.6651 17.6079H83.5444V6.60543C83.5444 4.85356 82.7342 3.17345 81.2921 1.93469C79.85 0.695928 77.8941 0 75.8546 0H29.2426C27.2032 0 25.2472 0.695928 23.8051 1.93469C22.363 3.17345 21.5528 4.85356 21.5528 6.60543V17.6079H21.4321C21.3002 17.6079 21.1697 17.6302 21.0479 17.6736C20.9261 17.7169 20.8155 17.7805 20.7223 17.8606C20.6291 17.9407 20.5552 18.0358 20.5048 18.1404C20.4544 18.245 20.4285 18.3572 20.4286 18.4704V26.082C20.4285 26.1953 20.4544 26.3074 20.5048 26.412C20.5552 26.5167 20.6291 26.6118 20.7223 26.6919C20.8155 26.772 20.9261 26.8355 21.0479 26.8789C21.1697 26.9222 21.3002 26.9445 21.4321 26.9445H21.5528V28.7598H21.4321C21.3002 28.7598 21.1697 28.7821 21.0479 28.8254C20.9261 28.8688 20.8155 28.9323 20.7223 29.0124C20.6291 29.0925 20.5552 29.1876 20.5048 29.2922C20.4544 29.3969 20.4285 29.509 20.4286 29.6223V37.2328C20.4285 37.3461 20.4544 37.4582 20.5048 37.5629C20.5552 37.6675 20.6291 37.7626 20.7223 37.8427C20.8155 37.9228 20.9261 37.9863 21.0479 38.0297C21.1697 38.073 21.3002 38.0953 21.4321 38.0953H21.5528V104.747C21.5528 106.499 22.363 108.179 23.8051 109.418C25.2472 110.657 27.2032 111.353 29.2426 111.353H75.8546C77.8941 111.353 79.85 110.657 81.2921 109.418C82.7342 108.179 83.5444 106.499 83.5444 104.747V31.6113H83.6651C83.9315 31.6113 84.1868 31.5204 84.3751 31.3586C84.5635 31.1969 84.6692 30.9775 84.6692 30.7488V18.4704C84.6692 18.2417 84.5635 18.0223 84.3751 17.8605C84.1868 17.6988 83.9315 17.6079 83.6651 17.6079Z" fill="#333343"/>
<path d="M75.0601 1.63373H30.0361C26.5867 1.63373 23.7905 4.03565 23.7905 6.99857V104.354C23.7905 107.317 26.5867 109.719 30.0361 109.719H75.0601C78.5094 109.719 81.3057 107.317 81.3057 104.354V6.99857C81.3057 4.03565 78.5094 1.63373 75.0601 1.63373Z" fill="white"/>
<rect x="32.9555" y="49.2097" width="40.7928" height="12.6179" rx="6.30893" fill="black"/>
<path d="M42.3613 58V54.4453H43.5796C43.9816 54.4453 44.2876 54.5259 44.4976 54.687C44.7075 54.8481 44.8125 55.0882 44.8125 55.4072C44.8125 55.57 44.7686 55.7165 44.6807 55.8467C44.5928 55.9769 44.4642 56.0778 44.2949 56.1494C44.487 56.2015 44.6351 56.3 44.7393 56.4448C44.8451 56.5881 44.8979 56.7606 44.8979 56.9624C44.8979 57.2961 44.7905 57.5524 44.5757 57.7314C44.3625 57.9105 44.0565 58 43.6577 58H42.3613ZM42.979 56.396V57.5068H43.665C43.8587 57.5068 44.0101 57.4588 44.1191 57.3628C44.2282 57.2668 44.2827 57.1333 44.2827 56.9624C44.2827 56.5929 44.0939 56.4041 43.7163 56.396H42.979ZM42.979 55.9419H43.5845C43.7765 55.9419 43.9263 55.8988 44.0337 55.8125C44.1427 55.7246 44.1973 55.6009 44.1973 55.4414C44.1973 55.2656 44.1468 55.1387 44.0459 55.0605C43.9466 54.9824 43.7912 54.9434 43.5796 54.9434H42.979V55.9419ZM48.1157 54.4453V56.8208C48.1157 57.1984 47.9945 57.4979 47.752 57.7192C47.5111 57.939 47.1896 58.0488 46.7876 58.0488C46.3807 58.0488 46.0576 57.9406 45.8184 57.7241C45.5791 57.506 45.4595 57.2041 45.4595 56.8184V54.4453H46.0747V56.8232C46.0747 57.0609 46.1349 57.2424 46.2554 57.3677C46.3758 57.493 46.5532 57.5557 46.7876 57.5557C47.2629 57.5557 47.5005 57.305 47.5005 56.8037V54.4453H48.1157ZM49.937 56.1299L50.7549 54.4453H51.4385L50.2471 56.6914V58H49.627V56.6914L48.4331 54.4453H49.1191L49.937 56.1299ZM55.8892 58H55.2715L53.687 55.478V58H53.0693V54.4453H53.687L55.2764 56.9771V54.4453H55.8892V58ZM59.4561 56.3154C59.4561 56.6637 59.3958 56.9697 59.2754 57.2334C59.1549 57.4954 58.9824 57.6973 58.7578 57.8389C58.5348 57.9788 58.2777 58.0488 57.9863 58.0488C57.6982 58.0488 57.4411 57.9788 57.2148 57.8389C56.9902 57.6973 56.8161 57.4963 56.6924 57.2358C56.5703 56.9754 56.5085 56.6751 56.5068 56.335V56.1348C56.5068 55.7881 56.5679 55.4821 56.6899 55.2168C56.8136 54.9515 56.987 54.7489 57.21 54.6089C57.4346 54.4673 57.6917 54.3965 57.9814 54.3965C58.2712 54.3965 58.5275 54.4665 58.7505 54.6064C58.9751 54.7448 59.1484 54.945 59.2705 55.207C59.3926 55.4674 59.4544 55.771 59.4561 56.1177V56.3154ZM58.8384 56.1299C58.8384 55.736 58.7635 55.4341 58.6138 55.2241C58.4657 55.0142 58.2549 54.9092 57.9814 54.9092C57.7145 54.9092 57.5054 55.0142 57.354 55.2241C57.2043 55.4325 57.1278 55.7279 57.1245 56.1104V56.3154C57.1245 56.7061 57.2002 57.008 57.3516 57.2212C57.5046 57.4344 57.7161 57.541 57.9863 57.541C58.2598 57.541 58.4697 57.4368 58.6162 57.2285C58.7643 57.0202 58.8384 56.7158 58.8384 56.3154V56.1299ZM62.8594 57.1211L63.4062 54.4453H64.019L63.1987 58H62.6079L61.9316 55.4048L61.2407 58H60.6475L59.8271 54.4453H60.4399L60.9917 57.1162L61.6704 54.4453H62.188L62.8594 57.1211Z" fill="white"/>
</svg>
