<svg width="339" height="552" viewBox="0 0 339 552" fill="none" xmlns="http://www.w3.org/2000/svg">
<path d="M233.225 398.378C238.754 399.235 244.477 396.041 249.266 393.851C254.94 391.253 261.02 389.605 267.116 388.237C271.986 387.143 276.857 386.013 281.719 384.887L285.359 384.045C286.854 383.656 288.353 383.266 289.848 382.919C291.343 382.573 293.577 382.386 295.072 382.07C307.577 379.733 319.757 376.561 331.213 369.603C332.449 368.775 333.616 367.856 334.705 366.853L334.737 366.821C335.069 366.512 335.303 366.117 335.413 365.683C335.522 365.249 335.503 364.794 335.356 364.371C335.21 363.948 334.943 363.573 334.586 363.291C334.228 363.009 333.796 362.831 333.339 362.778L332.885 362.731C317.482 361.885 302.964 369.677 287.895 371.458C286.42 371.785 284.942 372.089 283.475 372.354C282.008 372.619 280.493 372.852 278.986 373.039C277.676 373.273 276.362 373.487 275.052 373.682C268.48 374.628 261.837 375.036 255.194 374.902C245.754 374.75 236.263 374.57 226.94 372.985C222.761 372.272 213.101 369.478 218.626 363.977C224.152 358.476 231.694 354.397 238.091 349.859C240.186 348.376 242.27 346.884 244.344 345.382C246.068 344.14 247.84 343.099 248.459 340.972C248.861 339.613 248.969 337.536 248.057 336.344C246.996 334.972 245.525 335.269 243.958 335.456C237.782 336.184 232.345 339.133 226.828 341.689C220.993 344.416 214.773 346.185 208.576 347.993C203.549 349.465 181.324 353.926 181.324 353.926C158.757 357.475 122.712 396.987 110.536 405.886C109.773 406.439 109.255 407.254 109.087 408.163C108.919 409.073 109.114 410.011 109.632 410.787C115.897 420.137 123.403 428.357 129.724 437.435L131.452 439.651C131.826 440.135 132.302 440.534 132.85 440.823C133.397 441.112 134.002 441.283 134.623 441.326C135.245 441.368 135.868 441.281 136.452 441.069C137.036 440.858 137.565 440.527 138.006 440.1C138.892 439.229 139.763 438.349 140.618 437.458C152.761 425.93 163.378 405.971 182.3 407.121C184.804 407.51 187.259 407.935 189.706 408.344C197.06 409.563 204.357 410.756 212.305 412.298C221.278 413.787 230.3 414.184 238.397 410.156C253.731 404.436 268.555 391.331 283.857 384.392" stroke="#222221" stroke-width="6" stroke-linecap="round" stroke-linejoin="round"/>
<path d="M306.311 367.227C308.626 364.8 316.675 362.583 314.931 358.266C314.449 357.636 313.835 357.111 313.13 356.728C312.424 356.344 311.642 356.11 310.836 356.042C302.1 356.517 280.654 368.625 279.243 369.019C277.58 369.825 275.868 370.577 274.168 371.356C272.468 372.136 269.535 373.612 267.896 374.496" stroke="#222221" stroke-width="6" stroke-linecap="round" stroke-linejoin="round"/>
<path d="M303.908 357.21C305.262 352.652 300.424 350.782 296.314 351.904C292.661 352.901 289.265 354.787 285.705 356.497C284.528 357.121 283.342 357.725 282.129 358.258C280.917 358.797 279.664 359.241 278.38 359.587C277.387 359.906 276.394 360.234 275.418 360.569C274.442 360.904 273.477 361.258 272.541 361.636C266.582 364.04 260.791 366.541 255.069 369.428C251.404 371.271 247.394 372.412 243.818 374.391" stroke="#222221" stroke-width="6" stroke-linecap="round" stroke-linejoin="round"/>
<path d="M279.999 358.963C280.063 358.048 279.071 357.296 277.905 356.712C275.45 355.488 268.932 358.391 266.043 360.175C261.402 363.046 237.292 373.094 236.179 374.142" stroke="#222221" stroke-width="6" stroke-linecap="round" stroke-linejoin="round"/>
<path d="M246.59 294.373C246.59 294.373 228.821 310.826 235.411 322.895C238.851 329.191 244.834 333.247 250.532 336.749C256.962 340.688 264.572 344.05 267.007 352.403C269.443 360.756 265.344 367.986 261.016 374.5" stroke="#222221" stroke-width="6" stroke-linecap="round" stroke-linejoin="round"/>
<path d="M219.365 312.605C220.184 310.714 219.267 308.538 217.317 307.744C215.367 306.95 213.122 307.839 212.303 309.73C211.485 311.62 212.402 313.796 214.352 314.59C216.302 315.384 218.546 314.495 219.365 312.605Z" stroke="#222221" stroke-width="6" stroke-linecap="round" stroke-linejoin="round"/>
<path d="M258.46 317.955C258.46 320.195 256.745 322.011 254.631 322.011C252.517 322.011 250.805 320.195 250.805 317.955C250.805 315.715 252.517 313.903 254.631 313.903C256.745 313.903 258.46 315.719 258.46 317.955Z" stroke="#222221" stroke-width="6" stroke-linecap="round" stroke-linejoin="round"/>
<path d="M220.914 331.093C222.409 329.643 222.409 327.292 220.914 325.842C219.418 324.392 216.994 324.392 215.498 325.842C214.003 327.292 214.003 329.643 215.498 331.093C216.994 332.543 219.418 332.543 220.914 331.093Z" stroke="#222221" stroke-width="6" stroke-linecap="round" stroke-linejoin="round"/>
<path d="M280.003 328.466C280.003 329.201 279.778 329.919 279.358 330.529C278.937 331.14 278.339 331.616 277.639 331.897C276.939 332.178 276.169 332.251 275.426 332.108C274.683 331.965 274.001 331.611 273.466 331.092C272.93 330.572 272.565 329.911 272.418 329.191C272.27 328.47 272.346 327.724 272.635 327.046C272.925 326.367 273.416 325.787 274.046 325.379C274.676 324.971 275.416 324.754 276.173 324.754C277.189 324.754 278.163 325.145 278.881 325.841C279.599 326.537 280.003 327.482 280.003 328.466V328.466Z" stroke="#222221" stroke-width="6" stroke-linecap="round" stroke-linejoin="round"/>
<path d="M248.421 245.947C248.421 245.947 246.998 255.374 241.656 255.374C241.656 255.374 248.421 258.945 248.421 265.087C248.421 258.945 254.598 255.374 254.598 255.374C249.256 255.374 248.421 245.947 248.421 245.947Z" fill="#222221"/>
<path d="M209.669 265.087C209.669 265.087 207.893 277.263 201.214 277.263C201.214 277.263 209.669 281.87 209.669 289.81C209.669 281.876 217.391 277.263 217.391 277.263C210.714 277.263 209.669 265.087 209.669 265.087Z" fill="#222221"/>
<path d="M188.639 303.368C188.639 303.368 186.863 315.544 180.184 315.544C180.184 315.544 188.639 320.15 188.639 328.09C188.639 320.157 196.361 315.544 196.361 315.544C189.686 315.544 188.639 303.368 188.639 303.368Z" fill="#222221"/>
<path d="M268.715 281.835C268.715 281.835 266.939 294.017 260.26 294.017C260.26 294.017 268.715 298.622 268.715 306.558C268.715 298.626 276.437 294.017 276.437 294.017C269.76 294.017 268.715 281.835 268.715 281.835Z" fill="#222221"/>
<path d="M-56 548.202C14.4566 520.137 100.616 465.566 134.888 441.789L108.672 409.436C56.8944 445.921 -22.6833 479.469 -56 491.682V548.202Z" stroke="black" stroke-width="4"/>
<path d="M328.91 46.0925H328.606V17.4882C328.606 12.9337 326.566 8.56576 322.934 5.34523C319.303 2.1247 314.377 0.31543 309.242 0.31543H191.864C186.728 0.31543 181.803 2.1247 178.171 5.34523C174.54 8.56576 172.5 12.9337 172.5 17.4882V46.0925H172.196C171.864 46.0925 171.535 46.1506 171.228 46.2633C170.922 46.376 170.643 46.5412 170.408 46.7494C170.174 46.9576 169.988 47.2048 169.861 47.4769C169.734 47.7489 169.669 48.0405 169.669 48.3349V68.1235C169.669 68.4179 169.734 68.7095 169.861 68.9815C169.988 69.2536 170.174 69.5008 170.408 69.709C170.643 69.9173 170.922 70.0825 171.228 70.1952C171.535 70.3079 171.864 70.3659 172.196 70.3659H172.5V75.0852H172.196C171.864 75.0852 171.535 75.1432 171.228 75.2559C170.922 75.3686 170.643 75.5338 170.408 75.742C170.174 75.9502 169.988 76.1974 169.861 76.4695C169.734 76.7415 169.669 77.0331 169.669 77.3275V97.1135C169.669 97.4079 169.734 97.6994 169.861 97.9715C169.988 98.2435 170.174 98.4907 170.408 98.6989C170.643 98.9072 170.922 99.0724 171.228 99.1851C171.535 99.2978 171.864 99.3558 172.196 99.3558H172.5V272.637C172.5 277.192 174.54 281.56 178.171 284.78C181.803 288.001 186.728 289.81 191.864 289.81H309.242C314.377 289.81 319.303 288.001 322.934 284.78C326.566 281.56 328.606 277.192 328.606 272.637V82.4985H328.91C329.58 82.4985 330.224 82.2622 330.698 81.8417C331.172 81.4212 331.438 80.8509 331.438 80.2562V48.3349C331.438 47.7402 331.172 47.1698 330.698 46.7493C330.224 46.3288 329.58 46.0925 328.91 46.0925Z" fill="#333343"/>
<path d="M307.241 4.56281H193.862C185.176 4.56281 178.135 10.8073 178.135 18.5103V271.615C178.135 279.318 185.176 285.563 193.862 285.563H307.241C315.927 285.563 322.968 279.318 322.968 271.615V18.5103C322.968 10.8073 315.927 4.56281 307.241 4.56281Z" fill="white"/>
<rect x="201.214" y="128.251" width="102.724" height="32.8039" rx="16.402" fill="black"/>
<path d="M224.99 148V139.469H227.779C228.705 139.469 229.4 139.66 229.865 140.043C230.334 140.426 230.568 140.992 230.568 141.742C230.568 142.141 230.455 142.494 230.229 142.803C230.002 143.107 229.693 143.344 229.303 143.512C229.764 143.641 230.127 143.887 230.393 144.25C230.662 144.609 230.797 145.039 230.797 145.539C230.797 146.305 230.549 146.906 230.053 147.344C229.557 147.781 228.855 148 227.949 148H224.99ZM226.115 144.01V147.08H227.973C228.496 147.08 228.908 146.945 229.209 146.676C229.514 146.402 229.666 146.027 229.666 145.551C229.666 144.523 229.107 144.01 227.99 144.01H226.115ZM226.115 143.107H227.814C228.307 143.107 228.699 142.984 228.992 142.738C229.289 142.492 229.438 142.158 229.438 141.736C229.438 141.268 229.301 140.928 229.027 140.717C228.754 140.502 228.338 140.395 227.779 140.395H226.115V143.107ZM238.473 139.469V145.27C238.469 146.074 238.215 146.732 237.711 147.244C237.211 147.756 236.531 148.043 235.672 148.105L235.373 148.117C234.439 148.117 233.695 147.865 233.141 147.361C232.586 146.857 232.305 146.164 232.297 145.281V139.469H233.41V145.246C233.41 145.863 233.58 146.344 233.92 146.688C234.26 147.027 234.744 147.197 235.373 147.197C236.01 147.197 236.496 147.027 236.832 146.688C237.172 146.348 237.342 145.869 237.342 145.252V139.469H238.473ZM242.85 143.752L245.076 139.469H246.354L243.412 144.818V148H242.287V144.818L239.346 139.469H240.635L242.85 143.752ZM256.988 148H255.857L251.562 141.426V148H250.432V139.469H251.562L255.869 146.072V139.469H256.988V148ZM265.549 144.01C265.549 144.846 265.408 145.576 265.127 146.201C264.846 146.822 264.447 147.297 263.932 147.625C263.416 147.953 262.814 148.117 262.127 148.117C261.455 148.117 260.859 147.953 260.34 147.625C259.82 147.293 259.416 146.822 259.127 146.213C258.842 145.6 258.695 144.891 258.688 144.086V143.471C258.688 142.65 258.83 141.926 259.115 141.297C259.4 140.668 259.803 140.188 260.322 139.855C260.846 139.52 261.443 139.352 262.115 139.352C262.799 139.352 263.4 139.518 263.92 139.85C264.443 140.178 264.846 140.656 265.127 141.285C265.408 141.91 265.549 142.639 265.549 143.471V144.01ZM264.43 143.459C264.43 142.447 264.227 141.672 263.82 141.133C263.414 140.59 262.846 140.318 262.115 140.318C261.404 140.318 260.844 140.59 260.434 141.133C260.027 141.672 259.818 142.422 259.807 143.383V144.01C259.807 144.99 260.012 145.762 260.422 146.324C260.836 146.883 261.404 147.162 262.127 147.162C262.854 147.162 263.416 146.898 263.814 146.371C264.213 145.84 264.418 145.08 264.43 144.092V143.459ZM269.076 145.311L269.24 146.436L269.48 145.422L271.168 139.469H272.117L273.764 145.422L273.998 146.453L274.18 145.305L275.504 139.469H276.635L274.566 148H273.541L271.783 141.783L271.648 141.133L271.514 141.783L269.691 148H268.666L266.604 139.469H267.729L269.076 145.311Z" fill="white"/>
</svg>
