<svg width="30" height="30" viewBox="0 0 30 30" fill="none" xmlns="http://www.w3.org/2000/svg">
<path d="M27.2727 0H2.72727C1.22045 0 0 1.21465 0 2.7143V27.143C0 28.6426 1.22045 29.8573 2.72727 29.8573H27.2727C28.7795 29.8573 30 28.6426 30 27.143V2.7143C30 1.21465 28.7795 0 27.2727 0ZM9.48273 24.4287H5.46V11.5466H9.48273V24.4287ZM7.43046 9.70497C6.13364 9.70497 5.085 8.65861 5.085 7.37067C5.085 6.08274 6.135 5.03774 7.43046 5.03774C8.72318 5.03774 9.77455 6.0841 9.77455 7.37067C9.77455 8.65861 8.72318 9.70497 7.43046 9.70497ZM24.5509 24.4287H20.5309V18.1641C20.5309 16.6699 20.5036 14.7481 18.4405 14.7481C16.3473 14.7481 16.0255 16.3754 16.0255 18.0555V24.4287H12.0055V11.5466H15.8645V13.3068H15.9191C16.4564 12.2944 17.7682 11.2263 19.725 11.2263C23.7982 11.2263 24.5509 13.8945 24.5509 17.3634V24.4287Z" fill="white"/>
</svg>
